<?xml version="1.0" encoding="UTF-8" standalone="no"?>
<!DOCTYPE svg PUBLIC "-//W3C//DTD SVG 1.1//EN" "http://www.w3.org/Graphics/SVG/1.1/DTD/svg11.dtd">
<svg xmlns="http://www.w3.org/2000/svg" version="1.1" viewBox="0.00 0.00 216.00 153.00">
<g stroke-width="2.00" fill="none" stroke-linecap="butt">
<path stroke="#576615" vector-effect="non-scaling-stroke" d="
  M 81.89 130.49
  L 81.89 92.56
  A 1.89 1.89 0.0 0 0 81.29 91.18
  L 72.32 82.78
  A 0.29 0.29 0.0 0 0 71.83 82.99
  L 71.82 121.42"
/>
<path stroke="#3d5b1f" vector-effect="non-scaling-stroke" d="
  M 71.82 121.42
  L 53.62 104.53
  A 3.34 3.33 -68.7 0 1 52.55 102.08
  L 52.59 54.20
  A 0.39 0.39 0.0 0 1 53.00 53.81
  Q 53.12 53.82 53.99 54.63
  Q 105.07 102.53 107.95 105.19
  Q 109.08 106.23 110.58 104.83
  Q 145.58 72.13 164.95 53.94
  A 0.38 0.38 0.0 0 1 165.59 54.22
  L 165.59 102.04
  A 3.39 3.38 68.4 0 1 164.53 104.50
  L 146.21 121.55"
/>
<path stroke="#576615" vector-effect="non-scaling-stroke" d="
  M 146.21 121.55
  L 146.31 83.22
  A 0.39 0.39 0.0 0 0 145.66 82.93
  L 137.21 90.84
  A 2.87 2.85 -21.6 0 0 136.30 92.93
  L 136.32 130.41"
/>
<path stroke="#3d5b1f" vector-effect="non-scaling-stroke" d="
  M 136.32 130.41
  Q 136.36 130.91 135.59 131.61
  Q 134.55 132.57 132.19 134.79
  A 3.05 3.04 68.5 0 0 131.23 137.01
  L 131.23 147.68
  A 0.56 0.56 0.0 0 0 132.17 148.09
  L 175.04 107.98
  A 1.77 1.76 68.4 0 0 175.59 106.70
  L 175.59 32.23
  A 0.59 0.59 0.0 0 0 174.60 31.80
  L 147.12 57.51
  A 0.47 0.47 0.0 0 1 146.33 57.17
  L 146.33 28.54
  A 0.37 0.37 0.0 0 0 145.77 28.22
  L 137.21 33.16
  A 1.82 1.80 75.2 0 0 136.31 34.73
  L 136.31 65.86
  A 3.92 3.89 -21.7 0 1 135.07 68.71
  L 109.53 92.61
  A 0.70 0.70 0.0 0 1 108.57 92.61
  Q 95.50 80.18 83.84 69.44
  Q 81.90 67.66 81.90 66.51
  Q 81.83 47.50 81.91 34.76
  A 1.86 1.85 15.1 0 0 80.97 33.13
  L 72.43 28.19
  A 0.38 0.38 0.0 0 0 71.86 28.52
  L 71.86 57.13
  A 0.48 0.48 0.0 0 1 71.05 57.48
  L 43.58 31.75
  A 0.59 0.59 0.0 0 0 42.58 32.18
  L 42.58 106.58
  A 1.99 1.98 21.7 0 0 43.21 108.03
  L 86.01 148.13
  A 0.53 0.52 -68.6 0 0 86.89 147.74
  L 86.89 136.85
  A 2.78 2.76 -71.4 0 0 85.81 134.65
  Q 83.36 132.77 81.89 130.49"
/>
<path stroke="#94c133" vector-effect="non-scaling-stroke" d="
  M 136.32 130.41
  L 146.21 121.55"
/>
<path stroke="#94c133" vector-effect="non-scaling-stroke" d="
  M 71.82 121.42
  L 81.89 130.49"
/>
</g>
<path fill="#000000" d="
  M 216.00 0.00
  L 216.00 153.00
  L 0.00 153.00
  L 0.00 0.00
  L 216.00 0.00
  Z
  M 81.89 130.49
  L 81.89 92.56
  A 1.89 1.89 0.0 0 0 81.29 91.18
  L 72.32 82.78
  A 0.29 0.29 0.0 0 0 71.83 82.99
  L 71.82 121.42
  L 53.62 104.53
  A 3.34 3.33 -68.7 0 1 52.55 102.08
  L 52.59 54.20
  A 0.39 0.39 0.0 0 1 53.00 53.81
  Q 53.12 53.82 53.99 54.63
  Q 105.07 102.53 107.95 105.19
  Q 109.08 106.23 110.58 104.83
  Q 145.58 72.13 164.95 53.94
  A 0.38 0.38 0.0 0 1 165.59 54.22
  L 165.59 102.04
  A 3.39 3.38 68.4 0 1 164.53 104.50
  L 146.21 121.55
  L 146.31 83.22
  A 0.39 0.39 0.0 0 0 145.66 82.93
  L 137.21 90.84
  A 2.87 2.85 -21.6 0 0 136.30 92.93
  L 136.32 130.41
  Q 136.36 130.91 135.59 131.61
  Q 134.55 132.57 132.19 134.79
  A 3.05 3.04 68.5 0 0 131.23 137.01
  L 131.23 147.68
  A 0.56 0.56 0.0 0 0 132.17 148.09
  L 175.04 107.98
  A 1.77 1.76 68.4 0 0 175.59 106.70
  L 175.59 32.23
  A 0.59 0.59 0.0 0 0 174.60 31.80
  L 147.12 57.51
  A 0.47 0.47 0.0 0 1 146.33 57.17
  L 146.33 28.54
  A 0.37 0.37 0.0 0 0 145.77 28.22
  L 137.21 33.16
  A 1.82 1.80 75.2 0 0 136.31 34.73
  L 136.31 65.86
  A 3.92 3.89 -21.7 0 1 135.07 68.71
  L 109.53 92.61
  A 0.70 0.70 0.0 0 1 108.57 92.61
  Q 95.50 80.18 83.84 69.44
  Q 81.90 67.66 81.90 66.51
  Q 81.83 47.50 81.91 34.76
  A 1.86 1.85 15.1 0 0 80.97 33.13
  L 72.43 28.19
  A 0.38 0.38 0.0 0 0 71.86 28.52
  L 71.86 57.13
  A 0.48 0.48 0.0 0 1 71.05 57.48
  L 43.58 31.75
  A 0.59 0.59 0.0 0 0 42.58 32.18
  L 42.58 106.58
  A 1.99 1.98 21.7 0 0 43.21 108.03
  L 86.01 148.13
  A 0.53 0.52 -68.6 0 0 86.89 147.74
  L 86.89 136.85
  A 2.78 2.76 -71.4 0 0 85.81 134.65
  Q 83.36 132.77 81.89 130.49
  Z"
/>
<path fill="#79b53d" d="
  M 136.32 130.41
  L 146.21 121.55
  L 164.53 104.50
  A 3.39 3.38 68.4 0 0 165.59 102.04
  L 165.59 54.22
  A 0.38 0.38 0.0 0 0 164.95 53.94
  Q 145.58 72.13 110.58 104.83
  Q 109.08 106.23 107.95 105.19
  Q 105.07 102.53 53.99 54.63
  Q 53.12 53.82 53.00 53.81
  A 0.39 0.39 0.0 0 0 52.59 54.20
  L 52.55 102.08
  A 3.34 3.33 -68.7 0 0 53.62 104.53
  L 71.82 121.42
  L 81.89 130.49
  Q 83.36 132.77 85.81 134.65
  A 2.78 2.76 -71.4 0 1 86.89 136.85
  L 86.89 147.74
  A 0.53 0.52 -68.6 0 1 86.01 148.13
  L 43.21 108.03
  A 1.99 1.98 21.7 0 1 42.58 106.58
  L 42.58 32.18
  A 0.59 0.59 0.0 0 1 43.58 31.75
  L 71.05 57.48
  A 0.48 0.48 0.0 0 0 71.86 57.13
  L 71.86 28.52
  A 0.38 0.38 0.0 0 1 72.43 28.19
  L 80.97 33.13
  A 1.86 1.85 15.1 0 1 81.91 34.76
  Q 81.83 47.50 81.90 66.51
  Q 81.90 67.66 83.84 69.44
  Q 95.50 80.18 108.57 92.61
  A 0.70 0.70 0.0 0 0 109.53 92.61
  L 135.07 68.71
  A 3.92 3.89 -21.7 0 0 136.31 65.86
  L 136.31 34.73
  A 1.82 1.80 75.2 0 1 137.21 33.16
  L 145.77 28.22
  A 0.37 0.37 0.0 0 1 146.33 28.54
  L 146.33 57.17
  A 0.47 0.47 0.0 0 0 147.12 57.51
  L 174.60 31.80
  A 0.59 0.59 0.0 0 1 175.59 32.23
  L 175.59 106.70
  A 1.77 1.76 68.4 0 1 175.04 107.98
  L 132.17 148.09
  A 0.56 0.56 0.0 0 1 131.23 147.68
  L 131.23 137.01
  A 3.05 3.04 68.5 0 1 132.19 134.79
  Q 134.55 132.57 135.59 131.61
  Q 136.36 130.91 136.32 130.41
  Z"
/>
<path fill="#aecc29" d="
  M 81.89 130.49
  L 71.82 121.42
  L 71.83 82.99
  A 0.29 0.29 0.0 0 1 72.32 82.78
  L 81.29 91.18
  A 1.89 1.89 0.0 0 1 81.89 92.56
  L 81.89 130.49
  Z"
/>
<path fill="#aecc29" d="
  M 146.21 121.55
  L 136.32 130.41
  L 136.30 92.93
  A 2.87 2.85 -21.6 0 1 137.21 90.84
  L 145.66 82.93
  A 0.39 0.39 0.0 0 1 146.31 83.22
  L 146.21 121.55
  Z"
/>
</svg>
